<svg xmlns="http://www.w3.org/2000/svg" viewBox="0 0 512 512">
  <defs>
    <radialGradient id="bg" cx=".5" cy=".42" r=".8">
      <stop offset="0" stop-color="#ffd24a"/>
      <stop offset=".55" stop-color="#ff8a3c"/>
      <stop offset="1" stop-color="#e8484f"/>
    </radialGradient>
  </defs>
  <rect width="512" height="512" rx="116" fill="url(#bg)"/>
  <!-- rays -->
  <g stroke="#ffffff" stroke-width="16" stroke-linecap="round" opacity=".35">
    <path d="M256 44v40M256 428v40M68 256h40M404 256h40M120 120l28 28M364 364l28 28M392 120l-28 28M148 364l-28 28"/>
  </g>
  <!-- barbell -->
  <g stroke="#3a2440" stroke-linecap="round">
    <path d="M116 168h280" stroke-width="26"/>
  </g>
  <rect x="118" y="118" width="52" height="100" rx="14" fill="#3a2440"/>
  <rect x="342" y="118" width="52" height="100" rx="14" fill="#3a2440"/>
  <!-- buddy -->
  <circle cx="256" cy="300" r="132" fill="#ff5d6a" stroke="#ffffff" stroke-width="14"/>
  <ellipse cx="214" cy="242" rx="52" ry="22" fill="#ffffff" opacity=".25" transform="rotate(-18 214 242)"/>
  <!-- sweatband -->
  <path d="M148 246q108-64 216 0l-8-42q-100-52-200 0z" fill="#59c9a5" stroke="#ffffff" stroke-width="9"/>
  <!-- arms up gripping the bar -->
  <path d="M170 282C120 250 118 204 140 180" fill="none" stroke="#ff5d6a" stroke-width="34" stroke-linecap="round"/>
  <path d="M342 282c50-32 52-78 30-102" fill="none" stroke="#ff5d6a" stroke-width="34" stroke-linecap="round"/>
  <circle cx="142" cy="176" r="28" fill="#ff8a94" stroke="#ffffff" stroke-width="9"/>
  <circle cx="370" cy="176" r="28" fill="#ff8a94" stroke="#ffffff" stroke-width="9"/>
  <!-- star eyes -->
  <g fill="#3a2440">
    <path d="M212 288l7 15 16 2-12 11 3 16-14-8-14 8 3-16-12-11 16-2z"/>
    <path d="M300 288l7 15 16 2-12 11 3 16-14-8-14 8 3-16-12-11 16-2z"/>
  </g>
  <!-- huge grin + tongue -->
  <path d="M204 348q52 44 104 0-6 50-52 50t-52-50z" fill="#5b1f2a"/>
  <path d="M214 352q42 16 84 0l-5 13q-37 12-74 0z" fill="#ffffff"/>
  <ellipse cx="256" cy="386" rx="20" ry="11" fill="#ff8a94"/>
  <!-- sweat + sparkle -->
  <path d="M396 262c11 16 17 25 17 34a17 17 0 1 1-34 0c0-9 6-18 17-34z" fill="#7dd3fc" stroke="#ffffff" stroke-width="7"/>
  <path d="M108 330l6 16 16 6-16 6-6 16-6-16-16-6 16-6z" fill="#ffffff" opacity=".9"/>
</svg>
