<svg xmlns="http://www.w3.org/2000/svg" viewBox="0 0 512 512">
  <defs>
    <linearGradient id="mbg" x1="0" y1="0" x2="1" y2="1">
      <stop offset="0" stop-color="#8b5cf6"/>
      <stop offset=".55" stop-color="#ec4899"/>
      <stop offset="1" stop-color="#fb923c"/>
    </linearGradient>
    <linearGradient id="mbody" x1="0" y1="0" x2="0" y2="1">
      <stop offset="0" stop-color="#ff8a5c"/>
      <stop offset="1" stop-color="#e33d2e"/>
    </linearGradient>
  </defs>
  <rect width="512" height="512" fill="url(#mbg)"/>
  <g transform="translate(256 256) scale(0.78) translate(-256 -256)">
    <path d="M104 106l7 20 20 7-20 7-7 20-7-20-20-7 20-7z" fill="#fff" opacity=".9"/>
    <path d="M424 318l6 17 17 6-17 6-6 17-6-17-17-6 17-6z" fill="#fff" opacity=".85"/>
    <path d="M158 212C150 98 362 98 354 212" fill="none" stroke="#fff" stroke-width="76" stroke-linecap="round"/>
    <path d="M158 212C150 98 362 98 354 212" fill="none" stroke="#2b2140" stroke-width="48" stroke-linecap="round"/>
    <path d="M130 330C86 312 78 258 104 228" fill="none" stroke="#fff" stroke-width="52" stroke-linecap="round"/>
    <path d="M130 330C86 312 78 258 104 228" fill="none" stroke="#e33d2e" stroke-width="32" stroke-linecap="round"/>
    <circle cx="104" cy="224" r="30" fill="#ff8a5c" stroke="#fff" stroke-width="11"/>
    <path d="M382 330c44-18 52-72 26-102" fill="none" stroke="#fff" stroke-width="52" stroke-linecap="round"/>
    <path d="M382 330c44-18 52-72 26-102" fill="none" stroke="#e33d2e" stroke-width="32" stroke-linecap="round"/>
    <circle cx="408" cy="224" r="30" fill="#ff8a5c" stroke="#fff" stroke-width="11"/>
    <circle cx="256" cy="300" r="144" fill="url(#mbody)" stroke="#fff" stroke-width="14"/>
    <ellipse cx="212" cy="220" rx="62" ry="26" fill="#fff" opacity=".22" transform="rotate(-18 212 220)"/>
    <path d="M182 240l52 16" stroke="#2b2140" stroke-width="16" stroke-linecap="round"/>
    <path d="M330 240l-52 16" stroke="#2b2140" stroke-width="16" stroke-linecap="round"/>
    <ellipse cx="216" cy="290" rx="25" ry="30" fill="#fff"/>
    <ellipse cx="296" cy="290" rx="25" ry="30" fill="#fff"/>
    <circle cx="222" cy="284" r="11" fill="#2b2140"/>
    <circle cx="302" cy="284" r="11" fill="#2b2140"/>
    <circle cx="226" cy="279" r="4" fill="#fff"/>
    <circle cx="306" cy="279" r="4" fill="#fff"/>
    <path d="M204 340q52 52 104 0-8 52-52 52t-52-52z" fill="#5b1f18"/>
    <path d="M212 342q44 18 88 0l-6 14q-38 14-76 0z" fill="#fff"/>
    <path d="M398 128c14 20 22 32 22 44a22 22 0 1 1-44 0c0-12 8-24 22-44z" fill="#7dd3fc" stroke="#fff" stroke-width="8"/>
  </g>
</svg>
